<svg width="126" height="146" viewBox="0 0 126 146" fill="none" xmlns="http://www.w3.org/2000/svg">
<path d="M13.0566 10.4286C12.3651 10.4286 11.702 10.7033 11.213 11.1922C10.7241 11.6811 10.4494 12.3443 10.4494 13.0357L10.4286 101.679C10.4286 103.118 11.5966 104.286 13.0357 104.286H31.2857V114.714H13.0357C5.84 114.714 0 108.874 0 101.679L0.0208581 13.0357C0.0208581 5.84 5.86086 0 13.0566 0H60.0164C67.2121 0 73.0521 5.84 73.0521 13.0461L73.0313 33.8929C73.0313 35.332 74.1889 36.5 75.6384 36.5H80.8214C84.1885 36.4972 87.4261 37.7974 89.856 40.1282C92.286 42.459 93.7198 45.6396 93.8571 49.0039C89.0604 46.2403 83.3629 45.4939 78.0161 46.9286H75.6384C73.9257 46.9286 72.2297 46.591 70.6475 45.9353C69.0652 45.2795 67.6277 44.3184 66.4171 43.1068C65.2065 41.8952 64.2465 40.457 63.592 38.8742C62.9375 37.2914 62.6013 35.5952 62.6027 33.8824L62.6236 13.0357C62.6236 12.3443 62.3489 11.6811 61.86 11.1922C61.371 10.7033 60.7079 10.4286 60.0164 10.4286H13.0566ZM90.5304 59.4429C88.6014 57.6514 86.0663 56.6558 83.4338 56.6558C80.8013 56.6558 78.2661 57.6514 76.3371 59.4429L46.72 86.943C45.1409 88.4075 43.8812 90.1823 43.0198 92.1563C42.1585 94.1302 41.714 96.2607 41.7143 98.4144V135.571C41.7143 138.337 42.813 140.99 44.7687 142.946C46.7245 144.901 49.377 146 52.1429 146H67.7857C70.5515 146 73.2041 144.901 75.1598 142.946C77.1156 140.99 78.2143 138.337 78.2143 135.571V125.143H88.6429V135.571C88.6429 138.337 89.7416 140.99 91.6973 142.946C93.6531 144.901 96.3056 146 99.0714 146H114.714C117.48 146 120.133 144.901 122.088 142.946C124.044 140.99 125.143 138.337 125.143 135.571V98.404C125.143 96.2503 124.699 94.1198 123.837 92.1458C122.976 90.1719 121.716 88.3971 120.137 86.9326L90.5304 59.4429ZM53.8114 94.5871L83.4286 67.0766L113.046 94.5871C113.571 95.0745 113.991 95.665 114.278 96.3217C114.565 96.9784 114.713 97.6873 114.714 98.404V135.571H99.0714V125.143C99.0714 122.377 97.9727 119.724 96.017 117.769C94.0612 115.813 91.4087 114.714 88.6429 114.714H78.2143C75.4485 114.714 72.7959 115.813 70.8402 117.769C68.8844 119.724 67.7857 122.377 67.7857 125.143V135.571H52.1429V98.404C52.1437 97.6873 52.2923 96.9784 52.5794 96.3217C52.8665 95.665 53.2859 95.0745 53.8114 94.5871ZM31.2857 26.0714C31.2857 27.4543 30.7364 28.7806 29.7585 29.7585C28.7806 30.7364 27.4543 31.2857 26.0714 31.2857C24.6885 31.2857 23.3622 30.7364 22.3844 29.7585C21.4065 28.7806 20.8571 27.4543 20.8571 26.0714C20.8571 24.6885 21.4065 23.3622 22.3844 22.3844C23.3622 21.4065 24.6885 20.8571 26.0714 20.8571C27.4543 20.8571 28.7806 21.4065 29.7585 22.3844C30.7364 23.3622 31.2857 24.6885 31.2857 26.0714ZM26.0714 52.1429C27.4543 52.1429 28.7806 51.5935 29.7585 50.6156C30.7364 49.6378 31.2857 48.3115 31.2857 46.9286C31.2857 45.5457 30.7364 44.2194 29.7585 43.2415C28.7806 42.2636 27.4543 41.7143 26.0714 41.7143C24.6885 41.7143 23.3622 42.2636 22.3844 43.2415C21.4065 44.2194 20.8571 45.5457 20.8571 46.9286C20.8571 48.3115 21.4065 49.6378 22.3844 50.6156C23.3622 51.5935 24.6885 52.1429 26.0714 52.1429ZM31.2857 67.7857C31.2857 69.1686 30.7364 70.4949 29.7585 71.4728C28.7806 72.4506 27.4543 73 26.0714 73C24.6885 73 23.3622 72.4506 22.3844 71.4728C21.4065 70.4949 20.8571 69.1686 20.8571 67.7857C20.8571 66.4028 21.4065 65.0765 22.3844 64.0987C23.3622 63.1208 24.6885 62.5714 26.0714 62.5714C27.4543 62.5714 28.7806 63.1208 29.7585 64.0987C30.7364 65.0765 31.2857 66.4028 31.2857 67.7857ZM46.9286 31.2857C48.3115 31.2857 49.6378 30.7364 50.6156 29.7585C51.5935 28.7806 52.1429 27.4543 52.1429 26.0714C52.1429 24.6885 51.5935 23.3622 50.6156 22.3844C49.6378 21.4065 48.3115 20.8571 46.9286 20.8571C45.5457 20.8571 44.2194 21.4065 43.2415 22.3844C42.2636 23.3622 41.7143 24.6885 41.7143 26.0714C41.7143 27.4543 42.2636 28.7806 43.2415 29.7585C44.2194 30.7364 45.5457 31.2857 46.9286 31.2857ZM52.1429 46.9286C52.1429 48.3115 51.5935 49.6378 50.6156 50.6156C49.6378 51.5935 48.3115 52.1429 46.9286 52.1429C45.5457 52.1429 44.2194 51.5935 43.2415 50.6156C42.2636 49.6378 41.7143 48.3115 41.7143 46.9286C41.7143 45.5457 42.2636 44.2194 43.2415 43.2415C44.2194 42.2636 45.5457 41.7143 46.9286 41.7143C48.3115 41.7143 49.6378 42.2636 50.6156 43.2415C51.5935 44.2194 52.1429 45.5457 52.1429 46.9286ZM46.9286 73C48.3115 73 49.6378 72.4506 50.6156 71.4728C51.5935 70.4949 52.1429 69.1686 52.1429 67.7857C52.1429 66.4028 51.5935 65.0765 50.6156 64.0987C49.6378 63.1208 48.3115 62.5714 46.9286 62.5714C45.5457 62.5714 44.2194 63.1208 43.2415 64.0987C42.2636 65.0765 41.7143 66.4028 41.7143 67.7857C41.7143 69.1686 42.2636 70.4949 43.2415 71.4728C44.2194 72.4506 45.5457 73 46.9286 73Z" fill="#F3BE2A"/>
</svg>
