<svg width="159" height="146" viewBox="0 0 159 146" fill="none" xmlns="http://www.w3.org/2000/svg">
<path d="M101.058 53.0909C105.011 53.0909 108.803 54.6641 111.598 57.4643C114.394 60.2646 115.964 64.0626 115.964 68.0227V109.493C115.964 119.176 112.124 128.461 105.29 135.307C98.4552 142.154 89.1855 146 79.5199 146C69.8543 146 60.5846 142.154 53.75 135.307C46.9154 128.461 43.0758 119.176 43.0758 109.493V68.0227C43.0758 64.0626 44.6462 60.2646 47.4417 57.4643C50.2372 54.6641 54.0286 53.0909 57.982 53.0909H101.058ZM101.058 63.0455H57.982C56.6642 63.0455 55.4004 63.5698 54.4686 64.5033C53.5367 65.4367 53.0132 66.7027 53.0132 68.0227V109.493C53.0132 116.535 55.8059 123.289 60.7769 128.269C65.7478 133.248 72.4899 136.045 79.5199 136.045C86.5499 136.045 93.2919 133.248 98.2629 128.269C103.234 123.289 106.026 116.535 106.026 109.493V68.0227C106.026 66.7027 105.503 65.4367 104.571 64.5033C103.639 63.5698 102.376 63.0455 101.058 63.0455ZM14.9063 53.0909H42.4398C39.78 55.865 37.9109 59.3024 37.0271 63.0455H14.9063C13.5885 63.0455 12.3246 63.5698 11.3928 64.5033C10.461 65.4367 9.9375 66.7027 9.9375 68.0227V102.857C9.93661 106.187 10.7692 109.464 12.3591 112.388C13.949 115.312 16.2455 117.79 19.0385 119.596C21.8315 121.402 25.0319 122.477 28.3469 122.723C31.6619 122.97 34.9857 122.38 38.0143 121.007C38.8954 124.259 40.1608 127.352 41.7508 130.245C37.2118 132.23 32.2506 133.052 27.3153 132.635C22.3801 132.219 17.6261 130.577 13.4827 127.859C9.33934 125.141 5.93708 121.432 3.58315 117.067C1.22922 112.702 -0.00222794 107.818 3.02592e-06 102.857V68.0227C3.02592e-06 64.0626 1.57048 60.2646 4.36594 57.4643C7.16141 54.6641 10.9529 53.0909 14.9063 53.0909ZM144.094 53.0909C148.047 53.0909 151.839 54.6641 154.634 57.4643C157.43 60.2646 159 64.0626 159 68.0227V102.864C159.002 107.822 157.771 112.703 155.419 117.066C153.067 121.429 149.668 125.136 145.528 127.854C141.387 130.572 136.637 132.214 131.704 132.633C126.772 133.051 121.813 132.233 117.276 130.252L117.647 129.575C119.064 126.881 120.211 124.02 121.032 121.021C124.059 122.385 127.379 122.968 130.689 122.717C133.998 122.466 137.193 121.389 139.98 119.583C142.767 117.778 145.059 115.302 146.645 112.381C148.232 109.461 149.063 106.189 149.062 102.864V68.0227C149.062 66.7038 148.54 65.4388 147.61 64.5056C146.679 63.5724 145.417 63.0472 144.1 63.0455H122.019C121.134 59.3016 119.262 55.864 116.6 53.0909H144.094ZM79.5 0C82.545 -6.42792e-08 85.5602 0.600791 88.3735 1.76807C91.1867 2.93535 93.7429 4.64626 95.896 6.80311C98.0492 8.95996 99.7572 11.5205 100.922 14.3386C102.088 17.1566 102.688 20.177 102.688 23.2273C102.688 26.2775 102.088 29.2979 100.922 32.116C99.7572 34.934 98.0492 37.4946 95.896 39.6514C93.7429 41.8083 91.1867 43.5192 88.3735 44.6865C85.5602 45.8538 82.545 46.4545 79.5 46.4545C73.3503 46.4545 67.4525 44.0074 63.104 39.6514C58.7555 35.2955 56.3125 29.3875 56.3125 23.2273C56.3125 17.067 58.7555 11.1591 63.104 6.80311C67.4525 2.44715 73.3503 1.29818e-07 79.5 0ZM132.52 6.63636C135.13 6.63636 137.714 7.15133 140.126 8.15185C142.537 9.15238 144.728 10.6189 146.574 12.4676C148.419 14.3163 149.883 16.5111 150.882 18.9266C151.881 21.3421 152.395 23.931 152.395 26.5455C152.395 29.16 151.881 31.7489 150.882 34.1643C149.883 36.5798 148.419 38.7746 146.574 40.6233C144.728 42.472 142.537 43.9385 140.126 44.9391C137.714 45.9396 135.13 46.4545 132.52 46.4545C127.249 46.4545 122.193 44.357 118.466 40.6233C114.739 36.8896 112.645 31.8257 112.645 26.5455C112.645 21.2652 114.739 16.2013 118.466 12.4676C122.193 8.73392 127.249 6.63636 132.52 6.63636ZM26.4801 6.63636C29.0902 6.63636 31.6746 7.15133 34.086 8.15185C36.4973 9.15238 38.6883 10.6189 40.5339 12.4676C42.3794 14.3163 43.8434 16.5111 44.8422 18.9266C45.841 21.3421 46.3551 23.931 46.3551 26.5455C46.3551 29.16 45.841 31.7489 44.8422 34.1643C43.8434 36.5798 42.3794 38.7746 40.5339 40.6233C38.6883 42.472 36.4973 43.9385 34.086 44.9391C31.6746 45.9396 29.0902 46.4545 26.4801 46.4545C21.209 46.4545 16.1537 44.357 12.4264 40.6233C8.6991 36.8896 6.60513 31.8257 6.60513 26.5455C6.60513 21.2652 8.6991 16.2013 12.4264 12.4676C16.1537 8.73392 21.209 6.63636 26.4801 6.63636ZM79.5 9.95455C75.9859 9.95455 72.6157 11.3529 70.1308 13.842C67.646 16.3312 66.25 19.7071 66.25 23.2273C66.25 26.7474 67.646 30.1234 70.1308 32.6125C72.6157 35.1016 75.9859 36.5 79.5 36.5C83.0141 36.5 86.3843 35.1016 88.8692 32.6125C91.354 30.1234 92.75 26.7474 92.75 23.2273C92.75 19.7071 91.354 16.3312 88.8692 13.842C86.3843 11.3529 83.0141 9.95455 79.5 9.95455ZM132.52 16.5909C131.215 16.5909 129.923 16.8484 128.717 17.3487C127.511 17.8489 126.416 18.5822 125.493 19.5065C124.57 20.4309 123.838 21.5283 123.339 22.736C122.839 23.9438 122.582 25.2382 122.582 26.5455C122.582 27.8527 122.839 29.1472 123.339 30.3549C123.838 31.5626 124.57 32.66 125.493 33.5844C126.416 34.5087 127.511 35.242 128.717 35.7423C129.923 36.2425 131.215 36.5 132.52 36.5C135.155 36.5 137.683 35.4512 139.547 33.5844C141.41 31.7175 142.457 29.1856 142.457 26.5455C142.457 23.9053 141.41 21.3734 139.547 19.5065C137.683 17.6397 135.155 16.5909 132.52 16.5909ZM26.4801 16.5909C25.1751 16.5909 23.8829 16.8484 22.6772 17.3487C21.4715 17.8489 20.376 18.5822 19.4533 19.5065C18.5305 20.4309 17.7985 21.5283 17.2991 22.736C16.7997 23.9438 16.5426 25.2382 16.5426 26.5455C16.5426 27.8527 16.7997 29.1472 17.2991 30.3549C17.7985 31.5626 18.5305 32.66 19.4533 33.5844C20.376 34.5087 21.4715 35.242 22.6772 35.7423C23.8829 36.2425 25.1751 36.5 26.4801 36.5C29.1157 36.5 31.6434 35.4512 33.507 33.5844C35.3706 31.7175 36.4176 29.1856 36.4176 26.5455C36.4176 23.9053 35.3706 21.3734 33.507 19.5065C31.6434 17.6397 29.1157 16.5909 26.4801 16.5909Z" fill="#F3BE2A"/>
</svg>
