<svg width="146" height="146" viewBox="0 0 146 146" fill="none" xmlns="http://www.w3.org/2000/svg">
<path fill-rule="evenodd" clip-rule="evenodd" d="M73.0001 0C74.0757 0 75.1073 0.427281 75.8678 1.18785C76.6284 1.94841 77.0557 2.97996 77.0557 4.05556V4.33133C88.4031 5.51556 97.0617 10.3944 102.699 16.6034C106.576 20.8739 109.143 25.9637 109.95 30.9277L110.388 31.2643C114.947 34.7967 118.293 39.0793 117.498 43.9906C116.731 48.7356 112.444 51.6232 108.454 53.3873C107.444 53.8322 106.416 54.2328 105.372 54.5878C105.669 59.0217 105.053 63.4695 103.561 67.6555C102.069 71.8415 99.7335 75.6763 96.6984 78.9223C93.6632 82.1682 89.9936 84.7561 85.9171 86.5253C81.8405 88.2945 77.444 89.2074 73.0001 89.2074C68.5562 89.2074 64.1597 88.2945 60.0831 86.5253C56.0066 84.7561 52.337 82.1682 49.3018 78.9223C46.2667 75.6763 43.9307 71.8415 42.4388 67.6555C40.9468 63.4695 40.3307 59.0217 40.6287 54.5878C39.5842 54.2328 38.5559 53.8322 37.5464 53.3873C33.5558 51.6232 29.2691 48.7356 28.5026 43.9906C27.7077 39.0793 31.0535 34.7967 35.6119 31.2643L36.127 30.8668C36.2317 30.2212 36.3616 29.58 36.5163 28.9445C37.5833 24.7261 39.5338 20.7823 42.2387 17.374C47.6732 10.4471 56.567 4.85044 68.9445 4.13667V4.05556C68.9445 2.97996 69.3718 1.94841 70.1324 1.18785C70.893 0.427281 71.9245 0 73.0001 0ZM104.066 42.34C104.895 42.6404 105.801 42.662 106.644 42.4015C107.487 42.1409 108.222 41.6124 108.738 40.8962C109.537 42.0115 109.508 42.6036 109.492 42.6969C109.439 43.0213 108.819 44.3597 105.173 45.9738C100.919 47.8556 94.5189 49.2182 87.1783 49.9888C87.004 46.3458 85.4341 42.9097 82.7943 40.3932C80.1545 37.8766 76.6473 36.4728 73.0001 36.4728C69.353 36.4728 65.8457 37.8766 63.2059 40.3932C60.5661 42.9097 58.9962 46.3458 58.8219 49.9888C51.4813 49.2182 45.0817 47.8556 40.8274 45.9738C37.1814 44.3597 36.5609 43.0213 36.5082 42.6969C36.492 42.6036 36.4636 42.0156 37.2626 40.8962C37.8351 41.6943 38.6777 42.2575 39.6341 42.4812C40.5905 42.7049 41.5955 42.5739 42.4626 42.1126C43.3297 41.6513 44 40.891 44.3489 39.9729C44.6978 39.0548 44.7017 38.0413 44.3598 37.1205C43.8731 35.8065 43.7231 33.6287 44.3963 30.8628C45.1913 27.7698 46.6315 24.8798 48.6222 22.3826L48.6668 22.3258V30.4167C48.6668 31.4923 49.094 32.5238 49.8546 33.2844C50.6152 34.0449 51.6467 34.4722 52.7223 34.4722C53.7979 34.4722 54.8295 34.0449 55.59 33.2844C56.3506 32.5238 56.7779 31.4923 56.7779 30.4167V15.5977C60.1115 13.8335 64.1468 12.6006 68.9445 12.2599V22.3056C68.9445 23.3812 69.3718 24.4127 70.1324 25.1733C70.893 25.9338 71.9245 26.3611 73.0001 26.3611C74.0757 26.3611 75.1073 25.9338 75.8678 25.1733C76.6284 24.4127 77.0557 23.3812 77.0557 22.3056V12.4952C81.8007 13.0913 85.8481 14.4499 89.2223 16.2668V30.4167C89.2223 31.4923 89.6496 32.5238 90.4102 33.2844C91.1707 34.0449 92.2023 34.4722 93.2779 34.4722C94.3535 34.4722 95.385 34.0449 96.1456 33.2844C96.9062 32.5238 97.3334 31.4923 97.3334 30.4167V22.7882C101.859 28.1699 102.817 33.8639 101.632 37.1489C101.267 38.16 101.318 39.2747 101.774 40.2481C102.231 41.2215 103.055 41.9739 104.066 42.34ZM62.7274 60.4886C58.0342 60.1898 53.3641 59.6006 48.7438 58.7244C49.2304 64.8237 51.9969 70.5158 56.4921 74.6668C60.9874 78.8177 66.8815 81.1228 73.0001 81.1228C79.1187 81.1228 85.0128 78.8177 89.5081 74.6668C94.0033 70.5158 96.7698 64.8237 97.2564 58.7244C92.9575 59.568 88.1963 60.152 83.2728 60.4886C81.9488 61.8809 80.3552 62.9891 78.5891 63.7456C76.823 64.5021 74.9214 64.8911 73.0001 64.8889C71.0788 64.8911 69.1772 64.5021 67.4111 63.7456C65.645 62.9891 64.0514 61.8809 62.7274 60.4886ZM79.0834 50.6944C79.0834 52.3078 78.4425 53.8552 77.3017 54.996C76.1608 56.1369 74.6135 56.7778 73.0001 56.7778C71.3867 56.7778 69.8394 56.1369 68.6985 54.996C67.5577 53.8552 66.9168 52.3078 66.9168 50.6944C66.9168 49.081 67.5577 47.5337 68.6985 46.3929C69.8394 45.252 71.3867 44.6111 73.0001 44.6111C74.6135 44.6111 76.1608 45.252 77.3017 46.3929C78.4425 47.5337 79.0834 49.081 79.0834 50.6944Z" fill="#F3BE2A"/>
<path d="M73 133.833C75.1512 133.833 77.2143 132.979 78.7354 131.458C80.2566 129.936 81.1111 127.873 81.1111 125.722C81.1111 123.571 80.2566 121.508 78.7354 119.987C77.2143 118.466 75.1512 117.611 73 117.611C70.8488 117.611 68.7857 118.466 67.2646 119.987C65.7435 121.508 64.8889 123.571 64.8889 125.722C64.8889 127.873 65.7435 129.936 67.2646 131.458C68.7857 132.979 70.8488 133.833 73 133.833Z" fill="#F3BE2A"/>
<path fill-rule="evenodd" clip-rule="evenodd" d="M54.8879 90.8445L68.9444 101.389H77.0555L91.1121 90.8445C115.831 94.8027 146 105.809 146 121.667V146H0V121.667C0 105.809 30.1693 94.8027 54.8879 90.8445ZM79.7606 109.5L93.1845 99.4301C97.2522 100.176 101.393 101.113 105.444 102.212V137.889H113.556V104.694C116.394 105.668 119.116 106.726 121.667 107.866V137.889H24.3333V107.866C26.8843 106.73 29.6056 105.668 32.4444 104.694V137.889H40.5556V102.212C44.6071 101.113 48.7478 100.176 52.8155 99.4301L66.2394 109.5H79.7606ZM135.07 116.354C137.358 118.722 137.889 120.47 137.889 121.667V137.889H129.778V112.16C131.968 113.564 133.736 114.975 135.07 116.358V116.354ZM10.9297 116.354C12.2681 114.975 14.0363 113.564 16.2222 112.16V137.889H8.11111V121.667C8.11111 120.47 8.63833 118.722 10.9297 116.354Z" fill="#F3BE2A"/>
</svg>
