<svg width="96" height="72" viewBox="0 0 96 72" fill="none" xmlns="http://www.w3.org/2000/svg">
<path d="M21.8571 59.5714C21.8571 62.072 20.8638 64.4702 19.0956 66.2384C17.3274 68.0066 14.9292 69 12.4286 69C9.92796 69 7.52976 68.0066 5.76156 66.2384C3.99336 64.4702 3 62.072 3 59.5714C3 57.0708 3.99336 54.6726 5.76156 52.9044C7.52976 51.1362 9.92796 50.1429 12.4286 50.1429C14.9292 50.1429 17.3274 51.1362 19.0956 52.9044C20.8638 54.6726 21.8571 57.0708 21.8571 59.5714ZM21.8571 59.5714H45.4286M45.4286 59.5714C45.4286 62.072 46.4219 64.4702 48.1901 66.2384C49.9583 68.0066 52.3565 69 54.8571 69C57.3578 69 59.7559 68.0066 61.5241 66.2384C63.2923 64.4702 64.2857 62.072 64.2857 59.5714C64.2857 57.0708 63.2923 54.6726 61.5241 52.9044C59.7559 51.1362 57.3578 50.1429 54.8571 50.1429C52.3565 50.1429 49.9583 51.1362 48.1901 52.9044C46.4219 54.6726 45.4286 57.0708 45.4286 59.5714Z" stroke="#F3BE2A" stroke-width="5" stroke-linecap="round" stroke-linejoin="round"/>
<path d="M3 59.5714V31.2857H64.2857M64.2857 31.2857V59.5714M64.2857 31.2857L50.1429 3H31.2857V31.2857M12.4286 31.2857V12.4286H31.2857M92.5714 50.1429H78.4286V3M64.2857 40.7143H78.4286" stroke="#F3BE2A" stroke-width="5" stroke-linecap="round" stroke-linejoin="round"/>
</svg>
