<svg width="66" height="66" viewBox="0 0 66 66" fill="none" xmlns="http://www.w3.org/2000/svg">
<path d="M66 11V7.33333C66 6.36087 65.6137 5.42824 64.9261 4.74061C64.2384 4.05298 63.3058 3.66667 62.3333 3.66667H25.6667V0H14.6667V3.66667H11V11H14.6667V44H11V36.6667H3.66667V44H0V51.3333H3.66667V66H11V51.3333H29.3333V66H36.6667V51.3333H40.3333V44H36.6667V36.6667H29.3333V44H25.6667V11H55V27.94C53.2767 28.5633 52.03 30.1767 52.03 32.12C52.03 33.7333 52.91 35.2 54.2667 36.0067V40.3333H56.54C57.7867 40.3333 58.7767 41.36 58.7767 42.6067C58.7767 43.8533 57.7867 44.88 56.54 44.88C55.7333 44.88 55 44.44 54.5967 43.7433C54.2912 43.2324 53.7974 42.8616 53.2215 42.7108C52.6455 42.5599 52.0334 42.641 51.5167 42.9367C50.4167 43.5233 50.05 44.9167 50.6733 46.0167C51.8833 48.07 54.12 49.39 56.54 49.39C60.2433 49.39 63.2867 46.3467 63.2867 42.6067C63.2867 39.7467 61.4533 37.18 58.7767 36.2267V36.0067C60.17 35.2 61.05 33.7333 61.05 32.12C61.05 30.4333 60.06 29.0033 58.6667 28.2333V11H66ZM22 39.0867L18.3333 42.7533V37.5467L22 33.88V39.0867ZM22 28.27L18.3333 31.9367V26.73L22 23.0633V28.27ZM18.3333 20.9367V15.73L22 12.0633V17.27L18.3333 20.9367Z" fill="#F3BE2A"/>
</svg>
