<svg width="72" height="72" viewBox="0 0 72 72" fill="none" xmlns="http://www.w3.org/2000/svg">
<path d="M57.88 25.5138C56.9263 26.4613 55.6366 26.9932 54.2922 26.9932C52.9479 26.9932 51.6581 26.4613 50.7045 25.5138L46.4911 21.3005C45.5427 20.347 45.0104 19.0568 45.0104 17.7119C45.0104 16.3671 45.5427 15.0769 46.4911 14.1234L56.0278 4.58198C56.0467 4.56382 56.0608 4.54128 56.0688 4.51636C56.0768 4.49145 56.0786 4.46493 56.0739 4.43917C56.0691 4.41342 56.0581 4.38923 56.0418 4.36877C56.0255 4.34831 56.0043 4.33221 55.9802 4.32191C49.8244 1.68324 41.8433 3.02795 36.7753 8.05952C31.9261 12.8723 31.6502 20.1112 33.4262 26.4288C33.6785 27.3268 33.6779 28.277 33.4244 29.1747C33.1709 30.0723 32.6743 30.8825 31.9895 31.5159L5.57099 55.643C4.79154 56.334 4.16168 57.1773 3.72014 58.1207C3.27859 59.0642 3.0347 60.0881 3.00344 61.1293C2.97218 62.1705 3.15423 63.2071 3.53838 64.1754C3.92254 65.1437 4.50068 66.0232 5.23727 66.7598C5.97387 67.4963 6.85333 68.0745 7.82161 68.4586C8.78989 68.8428 9.82651 69.0248 10.8677 68.9936C11.909 68.9623 12.9328 68.7184 13.8763 68.2769C14.8198 67.8353 15.663 67.2055 16.3541 66.426L40.7523 39.9441C41.3776 39.2708 42.1743 38.7804 43.057 38.5253C43.9398 38.2703 44.8753 38.2602 45.7633 38.4963C52.0333 40.1756 59.1692 39.86 63.955 35.1361C69.107 30.0617 70.2186 21.0928 67.7211 15.9597C67.7098 15.9373 67.6934 15.9178 67.6732 15.903C67.653 15.8881 67.6295 15.8783 67.6048 15.8742C67.58 15.8702 67.5546 15.8721 67.5308 15.8798C67.5069 15.8875 67.4851 15.9008 67.4674 15.9185L57.88 25.5138Z" stroke="#F3BE2A" stroke-width="5" stroke-miterlimit="10" stroke-linecap="round"/>
<path d="M10.6451 63.8889C12.0464 63.8889 13.1823 62.7529 13.1823 61.3517C13.1823 59.9504 12.0464 58.8145 10.6451 58.8145C9.24385 58.8145 8.10791 59.9504 8.10791 61.3517C8.10791 62.7529 9.24385 63.8889 10.6451 63.8889Z" fill="#F3BE2A"/>
</svg>
