<svg width="57" height="66" viewBox="0 0 57 66" fill="none" xmlns="http://www.w3.org/2000/svg">
<path d="M5.90229 4.71429C5.58971 4.71429 5.28993 4.83846 5.06891 5.05948C4.84788 5.28051 4.72371 5.58028 4.72371 5.89286L4.71429 45.9643C4.71429 46.6149 5.24229 47.1429 5.89286 47.1429H14.1429V51.8571H5.89286C2.64 51.8571 0 49.2171 0 45.9643L0.00942901 5.89286C0.00942901 2.64 2.64943 0 5.90229 0H27.1307C30.3836 0 33.0236 2.64 33.0236 5.89757L33.0141 15.3214C33.0141 15.972 33.5374 16.5 34.1927 16.5H36.5357C38.0578 16.4987 39.5214 17.0865 40.6198 18.1401C41.7183 19.1938 42.3665 20.6316 42.4286 22.1524C40.2602 20.9032 37.6846 20.5657 35.2676 21.2143H34.1927C33.4185 21.2143 32.6518 21.0617 31.9365 20.7653C31.2213 20.4688 30.5714 20.0343 30.0242 19.4866C29.4769 18.9389 29.0429 18.2888 28.7471 17.5733C28.4512 16.8578 28.2992 16.091 28.2999 15.3167L28.3093 5.89286C28.3093 5.58028 28.1851 5.28051 27.9641 5.05948C27.7431 4.83846 27.4433 4.71429 27.1307 4.71429H5.90229ZM40.9247 26.8714C40.0527 26.0616 38.9067 25.6115 37.7166 25.6115C36.5266 25.6115 35.3806 26.0616 34.5086 26.8714L21.12 39.303C20.4062 39.965 19.8367 40.7674 19.4473 41.6597C19.0579 42.552 18.857 43.5151 18.8571 44.4887V61.2857C18.8571 62.536 19.3538 63.7351 20.2379 64.6192C21.122 65.5033 22.3211 66 23.5714 66H30.6429C31.8932 66 33.0923 65.5033 33.9764 64.6192C34.8605 63.7351 35.3571 62.536 35.3571 61.2857V56.5714H40.0714V61.2857C40.0714 62.536 40.5681 63.7351 41.4522 64.6192C42.3363 65.5033 43.5354 66 44.7857 66H51.8571C53.1074 66 54.3065 65.5033 55.1906 64.6192C56.0747 63.7351 56.5714 62.536 56.5714 61.2857V44.484C56.5715 43.5104 56.3706 42.5473 55.9812 41.655C55.5919 40.7626 55.0224 39.9603 54.3086 39.2983L40.9247 26.8714ZM24.3257 42.7586L37.7143 30.3223L51.1029 42.7586C51.3404 42.9789 51.53 43.2458 51.6598 43.5427C51.7896 43.8396 51.8568 44.16 51.8571 44.484V61.2857H44.7857V56.5714C44.7857 55.3211 44.289 54.122 43.4049 53.2379C42.5208 52.3538 41.3217 51.8571 40.0714 51.8571H35.3571C34.1068 51.8571 32.9077 52.3538 32.0236 53.2379C31.1395 54.122 30.6429 55.3211 30.6429 56.5714V61.2857H23.5714V44.484C23.5718 44.16 23.639 43.8396 23.7688 43.5427C23.8986 43.2458 24.0882 42.9789 24.3257 42.7586ZM14.1429 11.7857C14.1429 12.4109 13.8945 13.0104 13.4525 13.4525C13.0104 13.8945 12.4109 14.1429 11.7857 14.1429C11.1606 14.1429 10.561 13.8945 10.119 13.4525C9.67691 13.0104 9.42857 12.4109 9.42857 11.7857C9.42857 11.1606 9.67691 10.561 10.119 10.119C10.561 9.67691 11.1606 9.42857 11.7857 9.42857C12.4109 9.42857 13.0104 9.67691 13.4525 10.119C13.8945 10.561 14.1429 11.1606 14.1429 11.7857ZM11.7857 23.5714C12.4109 23.5714 13.0104 23.3231 13.4525 22.881C13.8945 22.439 14.1429 21.8394 14.1429 21.2143C14.1429 20.5891 13.8945 19.9896 13.4525 19.5475C13.0104 19.1055 12.4109 18.8571 11.7857 18.8571C11.1606 18.8571 10.561 19.1055 10.119 19.5475C9.67691 19.9896 9.42857 20.5891 9.42857 21.2143C9.42857 21.8394 9.67691 22.439 10.119 22.881C10.561 23.3231 11.1606 23.5714 11.7857 23.5714ZM14.1429 30.6429C14.1429 31.268 13.8945 31.8676 13.4525 32.3096C13.0104 32.7517 12.4109 33 11.7857 33C11.1606 33 10.561 32.7517 10.119 32.3096C9.67691 31.8676 9.42857 31.268 9.42857 30.6429C9.42857 30.0177 9.67691 29.4182 10.119 28.9761C10.561 28.5341 11.1606 28.2857 11.7857 28.2857C12.4109 28.2857 13.0104 28.5341 13.4525 28.9761C13.8945 29.4182 14.1429 30.0177 14.1429 30.6429ZM21.2143 14.1429C21.8394 14.1429 22.439 13.8945 22.881 13.4525C23.3231 13.0104 23.5714 12.4109 23.5714 11.7857C23.5714 11.1606 23.3231 10.561 22.881 10.119C22.439 9.67691 21.8394 9.42857 21.2143 9.42857C20.5891 9.42857 19.9896 9.67691 19.5475 10.119C19.1055 10.561 18.8571 11.1606 18.8571 11.7857C18.8571 12.4109 19.1055 13.0104 19.5475 13.4525C19.9896 13.8945 20.5891 14.1429 21.2143 14.1429ZM23.5714 21.2143C23.5714 21.8394 23.3231 22.439 22.881 22.881C22.439 23.3231 21.8394 23.5714 21.2143 23.5714C20.5891 23.5714 19.9896 23.3231 19.5475 22.881C19.1055 22.439 18.8571 21.8394 18.8571 21.2143C18.8571 20.5891 19.1055 19.9896 19.5475 19.5475C19.9896 19.1055 20.5891 18.8571 21.2143 18.8571C21.8394 18.8571 22.439 19.1055 22.881 19.5475C23.3231 19.9896 23.5714 20.5891 23.5714 21.2143ZM21.2143 33C21.8394 33 22.439 32.7517 22.881 32.3096C23.3231 31.8676 23.5714 31.268 23.5714 30.6429C23.5714 30.0177 23.3231 29.4182 22.881 28.9761C22.439 28.5341 21.8394 28.2857 21.2143 28.2857C20.5891 28.2857 19.9896 28.5341 19.5475 28.9761C19.1055 29.4182 18.8571 30.0177 18.8571 30.6429C18.8571 31.268 19.1055 31.8676 19.5475 32.3096C19.9896 32.7517 20.5891 33 21.2143 33Z" fill="#F3BE2A"/>
</svg>
